<?xml version="1.0" encoding="utf-8"?>
<!-- Svg Vector Icons : http://www.onlinewebfonts.com/icon -->
<!DOCTYPE svg PUBLIC "-//W3C//DTD SVG 1.1//EN" "http://www.w3.org/Graphics/SVG/1.1/DTD/svg11.dtd">
<svg version="1.1" xmlns="http://www.w3.org/2000/svg" xmlns:xlink="http://www.w3.org/1999/xlink" x="0px" y="0px" viewBox="0 0 1000 1000" enable-background="new 0 0 1000 1000" xml:space="preserve">
<metadata> Svg Vector Icons : http://www.onlinewebfonts.com/icon </metadata>
<g><g transform="matrix(1 0 0 -1 0 1952)"><path d="M914.6,1942l-829.2,0c-41.6,0-75.4-33.8-75.4-75.4v-829.2c0-41.7,33.8-75.4,75.4-75.4h829.2c41.6,0,75.4,33.7,75.4,75.4v829.2C990,1908.2,956.2,1942,914.6,1942L914.6,1942z M311.7,1020.3h-132v431.5h132V1020.3L311.7,1020.3z M311.7,1528.4h-132v112.7h132V1528.4z M839.1,1020.3H707.1v256.8c0,37.5-5.9,65.5-17.6,84c-11.7,18.5-31.4,27.7-61.3,27.7c-34,0-58.6-10.1-73.9-30.3c-15.3-20.2-18.2-53.5-18.2-99.8v-238.3H405.4v452.3h114v-60.9h2.6c15.8,26.3,42.2,45.6,67.4,57.6c25.2,12,56.9,20.4,83.3,20.4c33.4,0,60.8-6.9,82.2-16c21.4-9.1,38.2-21.7,50.6-37.8c12.3-16.1,21-35.8,26-58.9c5-23.2,7.5-48.8,7.5-77V1020.3z"/></g></g>
</svg>